<mxfile host="app.diagrams.net" agent="Mozilla/5.0 (Windows NT 10.0; Win64; x64) AppleWebKit/537.36 (KHTML, like Gecko) Chrome/141.0.0.0 Safari/537.36" version="28.2.7">
  <diagram name="Trang-1" id="n2l8kIQzBQYOINg-zM32">
    <mxGraphModel dx="1042" dy="692" grid="1" gridSize="10" guides="1" tooltips="1" connect="1" arrows="1" fold="1" page="1" pageScale="1" pageWidth="827" pageHeight="1169" math="0" shadow="0">
      <root>
        <mxCell id="u2vDj9N8JuKV6QBFlT1l-0" />
        <mxCell id="u2vDj9N8JuKV6QBFlT1l-1" parent="u2vDj9N8JuKV6QBFlT1l-0" />
        <mxCell id="p7sID6bK-hl4-37E8Ow6-1" style="edgeStyle=orthogonalEdgeStyle;rounded=0;orthogonalLoop=1;jettySize=auto;html=1;exitX=0.5;exitY=1;exitDx=0;exitDy=0;" edge="1" parent="u2vDj9N8JuKV6QBFlT1l-1" source="p7sID6bK-hl4-37E8Ow6-0">
          <mxGeometry relative="1" as="geometry">
            <mxPoint x="420" y="130" as="targetPoint" />
          </mxGeometry>
        </mxCell>
        <mxCell id="p7sID6bK-hl4-37E8Ow6-0" value="bắt đầu" style="ellipse;whiteSpace=wrap;html=1;" vertex="1" parent="u2vDj9N8JuKV6QBFlT1l-1">
          <mxGeometry x="360" y="10" width="120" height="80" as="geometry" />
        </mxCell>
        <mxCell id="p7sID6bK-hl4-37E8Ow6-3" style="edgeStyle=orthogonalEdgeStyle;rounded=0;orthogonalLoop=1;jettySize=auto;html=1;exitX=0.5;exitY=1;exitDx=0;exitDy=0;" edge="1" parent="u2vDj9N8JuKV6QBFlT1l-1" source="p7sID6bK-hl4-37E8Ow6-2">
          <mxGeometry relative="1" as="geometry">
            <mxPoint x="420" y="250" as="targetPoint" />
          </mxGeometry>
        </mxCell>
        <mxCell id="p7sID6bK-hl4-37E8Ow6-2" value="nhập số thứ nhất, số thứ 2 và +-*/" style="shape=parallelogram;perimeter=parallelogramPerimeter;whiteSpace=wrap;html=1;fixedSize=1;" vertex="1" parent="u2vDj9N8JuKV6QBFlT1l-1">
          <mxGeometry x="305" y="130" width="230" height="80" as="geometry" />
        </mxCell>
        <mxCell id="p7sID6bK-hl4-37E8Ow6-6" style="edgeStyle=orthogonalEdgeStyle;rounded=0;orthogonalLoop=1;jettySize=auto;html=1;exitX=0;exitY=0.5;exitDx=0;exitDy=0;" edge="1" parent="u2vDj9N8JuKV6QBFlT1l-1" source="p7sID6bK-hl4-37E8Ow6-4">
          <mxGeometry relative="1" as="geometry">
            <mxPoint x="310" y="290" as="targetPoint" />
          </mxGeometry>
        </mxCell>
        <mxCell id="p7sID6bK-hl4-37E8Ow6-7" value="Đ" style="edgeLabel;html=1;align=center;verticalAlign=middle;resizable=0;points=[];" vertex="1" connectable="0" parent="p7sID6bK-hl4-37E8Ow6-6">
          <mxGeometry x="-0.0971" y="3" relative="1" as="geometry">
            <mxPoint as="offset" />
          </mxGeometry>
        </mxCell>
        <mxCell id="p7sID6bK-hl4-37E8Ow6-9" style="edgeStyle=orthogonalEdgeStyle;rounded=0;orthogonalLoop=1;jettySize=auto;html=1;exitX=0.5;exitY=1;exitDx=0;exitDy=0;" edge="1" parent="u2vDj9N8JuKV6QBFlT1l-1" source="p7sID6bK-hl4-37E8Ow6-4">
          <mxGeometry relative="1" as="geometry">
            <mxPoint x="420" y="380" as="targetPoint" />
          </mxGeometry>
        </mxCell>
        <mxCell id="p7sID6bK-hl4-37E8Ow6-10" value="S" style="edgeLabel;html=1;align=center;verticalAlign=middle;resizable=0;points=[];" vertex="1" connectable="0" parent="p7sID6bK-hl4-37E8Ow6-9">
          <mxGeometry x="-0.24" y="-2" relative="1" as="geometry">
            <mxPoint as="offset" />
          </mxGeometry>
        </mxCell>
        <mxCell id="p7sID6bK-hl4-37E8Ow6-4" value="+" style="rhombus;whiteSpace=wrap;html=1;" vertex="1" parent="u2vDj9N8JuKV6QBFlT1l-1">
          <mxGeometry x="380" y="250" width="80" height="80" as="geometry" />
        </mxCell>
        <mxCell id="p7sID6bK-hl4-37E8Ow6-42" style="edgeStyle=orthogonalEdgeStyle;rounded=0;orthogonalLoop=1;jettySize=auto;html=1;exitX=0;exitY=0.5;exitDx=0;exitDy=0;entryX=0;entryY=0.5;entryDx=0;entryDy=0;" edge="1" parent="u2vDj9N8JuKV6QBFlT1l-1" source="p7sID6bK-hl4-37E8Ow6-8" target="p7sID6bK-hl4-37E8Ow6-41">
          <mxGeometry relative="1" as="geometry" />
        </mxCell>
        <mxCell id="p7sID6bK-hl4-37E8Ow6-8" value="số thứ nhất + số thứ 2&amp;nbsp;" style="rounded=0;whiteSpace=wrap;html=1;" vertex="1" parent="u2vDj9N8JuKV6QBFlT1l-1">
          <mxGeometry x="190" y="260" width="120" height="60" as="geometry" />
        </mxCell>
        <mxCell id="p7sID6bK-hl4-37E8Ow6-12" style="edgeStyle=orthogonalEdgeStyle;rounded=0;orthogonalLoop=1;jettySize=auto;html=1;exitX=0;exitY=0.5;exitDx=0;exitDy=0;" edge="1" parent="u2vDj9N8JuKV6QBFlT1l-1" source="p7sID6bK-hl4-37E8Ow6-11">
          <mxGeometry relative="1" as="geometry">
            <mxPoint x="320" y="420" as="targetPoint" />
          </mxGeometry>
        </mxCell>
        <mxCell id="p7sID6bK-hl4-37E8Ow6-13" value="Đ" style="edgeLabel;html=1;align=center;verticalAlign=middle;resizable=0;points=[];" vertex="1" connectable="0" parent="p7sID6bK-hl4-37E8Ow6-12">
          <mxGeometry x="-0.2133" y="-3" relative="1" as="geometry">
            <mxPoint as="offset" />
          </mxGeometry>
        </mxCell>
        <mxCell id="p7sID6bK-hl4-37E8Ow6-15" style="edgeStyle=orthogonalEdgeStyle;rounded=0;orthogonalLoop=1;jettySize=auto;html=1;exitX=0.5;exitY=1;exitDx=0;exitDy=0;" edge="1" parent="u2vDj9N8JuKV6QBFlT1l-1" source="p7sID6bK-hl4-37E8Ow6-11">
          <mxGeometry relative="1" as="geometry">
            <mxPoint x="420" y="510" as="targetPoint" />
          </mxGeometry>
        </mxCell>
        <mxCell id="p7sID6bK-hl4-37E8Ow6-16" value="S" style="edgeLabel;html=1;align=center;verticalAlign=middle;resizable=0;points=[];" vertex="1" connectable="0" parent="p7sID6bK-hl4-37E8Ow6-15">
          <mxGeometry x="-0.12" y="1" relative="1" as="geometry">
            <mxPoint as="offset" />
          </mxGeometry>
        </mxCell>
        <mxCell id="p7sID6bK-hl4-37E8Ow6-11" value="-" style="rhombus;whiteSpace=wrap;html=1;" vertex="1" parent="u2vDj9N8JuKV6QBFlT1l-1">
          <mxGeometry x="380" y="380" width="80" height="80" as="geometry" />
        </mxCell>
        <mxCell id="p7sID6bK-hl4-37E8Ow6-14" value="số thứ nhất - số thứ 2" style="rounded=0;whiteSpace=wrap;html=1;" vertex="1" parent="u2vDj9N8JuKV6QBFlT1l-1">
          <mxGeometry x="200" y="390" width="120" height="60" as="geometry" />
        </mxCell>
        <mxCell id="p7sID6bK-hl4-37E8Ow6-18" style="edgeStyle=orthogonalEdgeStyle;rounded=0;orthogonalLoop=1;jettySize=auto;html=1;exitX=0;exitY=0.5;exitDx=0;exitDy=0;" edge="1" parent="u2vDj9N8JuKV6QBFlT1l-1" source="p7sID6bK-hl4-37E8Ow6-17">
          <mxGeometry relative="1" as="geometry">
            <mxPoint x="320" y="550" as="targetPoint" />
          </mxGeometry>
        </mxCell>
        <mxCell id="p7sID6bK-hl4-37E8Ow6-19" value="Đ" style="edgeLabel;html=1;align=center;verticalAlign=middle;resizable=0;points=[];" vertex="1" connectable="0" parent="p7sID6bK-hl4-37E8Ow6-18">
          <mxGeometry x="-0.08" y="-3" relative="1" as="geometry">
            <mxPoint as="offset" />
          </mxGeometry>
        </mxCell>
        <mxCell id="p7sID6bK-hl4-37E8Ow6-21" style="edgeStyle=orthogonalEdgeStyle;rounded=0;orthogonalLoop=1;jettySize=auto;html=1;exitX=0.5;exitY=1;exitDx=0;exitDy=0;" edge="1" parent="u2vDj9N8JuKV6QBFlT1l-1" source="p7sID6bK-hl4-37E8Ow6-17">
          <mxGeometry relative="1" as="geometry">
            <mxPoint x="420" y="650" as="targetPoint" />
          </mxGeometry>
        </mxCell>
        <mxCell id="p7sID6bK-hl4-37E8Ow6-22" value="S" style="edgeLabel;html=1;align=center;verticalAlign=middle;resizable=0;points=[];" vertex="1" connectable="0" parent="p7sID6bK-hl4-37E8Ow6-21">
          <mxGeometry x="-0.1667" relative="1" as="geometry">
            <mxPoint as="offset" />
          </mxGeometry>
        </mxCell>
        <mxCell id="p7sID6bK-hl4-37E8Ow6-17" value="*" style="rhombus;whiteSpace=wrap;html=1;" vertex="1" parent="u2vDj9N8JuKV6QBFlT1l-1">
          <mxGeometry x="380" y="510" width="80" height="80" as="geometry" />
        </mxCell>
        <mxCell id="p7sID6bK-hl4-37E8Ow6-20" value="số thứ nhất * số thứ 2" style="rounded=0;whiteSpace=wrap;html=1;" vertex="1" parent="u2vDj9N8JuKV6QBFlT1l-1">
          <mxGeometry x="200" y="520" width="120" height="60" as="geometry" />
        </mxCell>
        <mxCell id="p7sID6bK-hl4-37E8Ow6-24" style="edgeStyle=orthogonalEdgeStyle;rounded=0;orthogonalLoop=1;jettySize=auto;html=1;exitX=0;exitY=0.5;exitDx=0;exitDy=0;" edge="1" parent="u2vDj9N8JuKV6QBFlT1l-1" source="p7sID6bK-hl4-37E8Ow6-23">
          <mxGeometry relative="1" as="geometry">
            <mxPoint x="320" y="690" as="targetPoint" />
          </mxGeometry>
        </mxCell>
        <mxCell id="p7sID6bK-hl4-37E8Ow6-25" value="Đ" style="edgeLabel;html=1;align=center;verticalAlign=middle;resizable=0;points=[];" vertex="1" connectable="0" parent="p7sID6bK-hl4-37E8Ow6-24">
          <mxGeometry x="-0.0467" y="-1" relative="1" as="geometry">
            <mxPoint as="offset" />
          </mxGeometry>
        </mxCell>
        <mxCell id="p7sID6bK-hl4-37E8Ow6-37" style="edgeStyle=orthogonalEdgeStyle;rounded=0;orthogonalLoop=1;jettySize=auto;html=1;exitX=1;exitY=0.5;exitDx=0;exitDy=0;" edge="1" parent="u2vDj9N8JuKV6QBFlT1l-1" source="p7sID6bK-hl4-37E8Ow6-23">
          <mxGeometry relative="1" as="geometry">
            <mxPoint x="530" y="690" as="targetPoint" />
          </mxGeometry>
        </mxCell>
        <mxCell id="p7sID6bK-hl4-37E8Ow6-23" value="/" style="rhombus;whiteSpace=wrap;html=1;" vertex="1" parent="u2vDj9N8JuKV6QBFlT1l-1">
          <mxGeometry x="380" y="650" width="80" height="80" as="geometry" />
        </mxCell>
        <mxCell id="p7sID6bK-hl4-37E8Ow6-31" style="edgeStyle=orthogonalEdgeStyle;rounded=0;orthogonalLoop=1;jettySize=auto;html=1;exitX=0.5;exitY=1;exitDx=0;exitDy=0;entryX=0.5;entryY=0;entryDx=0;entryDy=0;" edge="1" parent="u2vDj9N8JuKV6QBFlT1l-1" source="p7sID6bK-hl4-37E8Ow6-26" target="p7sID6bK-hl4-37E8Ow6-30">
          <mxGeometry relative="1" as="geometry" />
        </mxCell>
        <mxCell id="p7sID6bK-hl4-37E8Ow6-32" value="Đ" style="edgeLabel;html=1;align=center;verticalAlign=middle;resizable=0;points=[];" vertex="1" connectable="0" parent="p7sID6bK-hl4-37E8Ow6-31">
          <mxGeometry x="-0.2" relative="1" as="geometry">
            <mxPoint as="offset" />
          </mxGeometry>
        </mxCell>
        <mxCell id="p7sID6bK-hl4-37E8Ow6-35" style="edgeStyle=orthogonalEdgeStyle;rounded=0;orthogonalLoop=1;jettySize=auto;html=1;exitX=0.75;exitY=1;exitDx=0;exitDy=0;entryX=0.5;entryY=0;entryDx=0;entryDy=0;" edge="1" parent="u2vDj9N8JuKV6QBFlT1l-1" source="p7sID6bK-hl4-37E8Ow6-26" target="p7sID6bK-hl4-37E8Ow6-33">
          <mxGeometry relative="1" as="geometry" />
        </mxCell>
        <mxCell id="p7sID6bK-hl4-37E8Ow6-36" value="S" style="edgeLabel;html=1;align=center;verticalAlign=middle;resizable=0;points=[];" vertex="1" connectable="0" parent="p7sID6bK-hl4-37E8Ow6-35">
          <mxGeometry x="-0.07" y="-2" relative="1" as="geometry">
            <mxPoint as="offset" />
          </mxGeometry>
        </mxCell>
        <mxCell id="p7sID6bK-hl4-37E8Ow6-26" value="số thứ 2 có bằng 0 không" style="rounded=0;whiteSpace=wrap;html=1;" vertex="1" parent="u2vDj9N8JuKV6QBFlT1l-1">
          <mxGeometry x="200" y="660" width="120" height="60" as="geometry" />
        </mxCell>
        <mxCell id="p7sID6bK-hl4-37E8Ow6-30" value="lỗi chia 0" style="shape=parallelogram;perimeter=parallelogramPerimeter;whiteSpace=wrap;html=1;fixedSize=1;" vertex="1" parent="u2vDj9N8JuKV6QBFlT1l-1">
          <mxGeometry x="200" y="760" width="120" height="60" as="geometry" />
        </mxCell>
        <mxCell id="p7sID6bK-hl4-37E8Ow6-33" value="số thứ nhất / số thứ 2" style="shape=parallelogram;perimeter=parallelogramPerimeter;whiteSpace=wrap;html=1;fixedSize=1;" vertex="1" parent="u2vDj9N8JuKV6QBFlT1l-1">
          <mxGeometry x="340" y="760" width="140" height="70" as="geometry" />
        </mxCell>
        <mxCell id="p7sID6bK-hl4-37E8Ow6-39" style="edgeStyle=orthogonalEdgeStyle;rounded=0;orthogonalLoop=1;jettySize=auto;html=1;exitX=0.5;exitY=1;exitDx=0;exitDy=0;" edge="1" parent="u2vDj9N8JuKV6QBFlT1l-1" source="p7sID6bK-hl4-37E8Ow6-38">
          <mxGeometry relative="1" as="geometry">
            <mxPoint x="590" y="760" as="targetPoint" />
          </mxGeometry>
        </mxCell>
        <mxCell id="p7sID6bK-hl4-37E8Ow6-38" value="không phụ thuộc vào +-*/" style="rounded=0;whiteSpace=wrap;html=1;" vertex="1" parent="u2vDj9N8JuKV6QBFlT1l-1">
          <mxGeometry x="530" y="660" width="120" height="60" as="geometry" />
        </mxCell>
        <mxCell id="p7sID6bK-hl4-37E8Ow6-52" style="edgeStyle=orthogonalEdgeStyle;rounded=0;orthogonalLoop=1;jettySize=auto;html=1;entryX=1;entryY=0.5;entryDx=0;entryDy=0;" edge="1" parent="u2vDj9N8JuKV6QBFlT1l-1" source="p7sID6bK-hl4-37E8Ow6-40" target="p7sID6bK-hl4-37E8Ow6-41">
          <mxGeometry relative="1" as="geometry" />
        </mxCell>
        <mxCell id="p7sID6bK-hl4-37E8Ow6-40" value="không hợp lệ" style="shape=parallelogram;perimeter=parallelogramPerimeter;whiteSpace=wrap;html=1;fixedSize=1;" vertex="1" parent="u2vDj9N8JuKV6QBFlT1l-1">
          <mxGeometry x="530" y="760" width="120" height="60" as="geometry" />
        </mxCell>
        <mxCell id="p7sID6bK-hl4-37E8Ow6-41" value="kết thúc" style="ellipse;whiteSpace=wrap;html=1;" vertex="1" parent="u2vDj9N8JuKV6QBFlT1l-1">
          <mxGeometry x="354" y="880" width="120" height="80" as="geometry" />
        </mxCell>
        <mxCell id="p7sID6bK-hl4-37E8Ow6-45" value="" style="endArrow=none;html=1;rounded=0;exitX=0;exitY=0.5;exitDx=0;exitDy=0;" edge="1" parent="u2vDj9N8JuKV6QBFlT1l-1" source="p7sID6bK-hl4-37E8Ow6-14">
          <mxGeometry width="50" height="50" relative="1" as="geometry">
            <mxPoint x="390" y="710" as="sourcePoint" />
            <mxPoint x="170" y="420" as="targetPoint" />
          </mxGeometry>
        </mxCell>
        <mxCell id="p7sID6bK-hl4-37E8Ow6-47" value="" style="endArrow=none;html=1;rounded=0;exitX=0;exitY=0.5;exitDx=0;exitDy=0;" edge="1" parent="u2vDj9N8JuKV6QBFlT1l-1" source="p7sID6bK-hl4-37E8Ow6-20">
          <mxGeometry width="50" height="50" relative="1" as="geometry">
            <mxPoint x="390" y="710" as="sourcePoint" />
            <mxPoint x="170" y="550" as="targetPoint" />
          </mxGeometry>
        </mxCell>
        <mxCell id="p7sID6bK-hl4-37E8Ow6-48" value="" style="endArrow=none;html=1;rounded=0;exitX=0;exitY=0.5;exitDx=0;exitDy=0;" edge="1" parent="u2vDj9N8JuKV6QBFlT1l-1" source="p7sID6bK-hl4-37E8Ow6-26">
          <mxGeometry width="50" height="50" relative="1" as="geometry">
            <mxPoint x="390" y="710" as="sourcePoint" />
            <mxPoint x="170" y="690" as="targetPoint" />
          </mxGeometry>
        </mxCell>
        <mxCell id="p7sID6bK-hl4-37E8Ow6-49" value="" style="endArrow=none;html=1;rounded=0;exitX=0;exitY=0.5;exitDx=0;exitDy=0;" edge="1" parent="u2vDj9N8JuKV6QBFlT1l-1" source="p7sID6bK-hl4-37E8Ow6-30">
          <mxGeometry width="50" height="50" relative="1" as="geometry">
            <mxPoint x="390" y="710" as="sourcePoint" />
            <mxPoint x="170" y="790" as="targetPoint" />
          </mxGeometry>
        </mxCell>
        <mxCell id="p7sID6bK-hl4-37E8Ow6-51" style="edgeStyle=orthogonalEdgeStyle;rounded=0;orthogonalLoop=1;jettySize=auto;html=1;exitX=0.5;exitY=1;exitDx=0;exitDy=0;entryX=0.447;entryY=0.023;entryDx=0;entryDy=0;entryPerimeter=0;" edge="1" parent="u2vDj9N8JuKV6QBFlT1l-1" source="p7sID6bK-hl4-37E8Ow6-33" target="p7sID6bK-hl4-37E8Ow6-41">
          <mxGeometry relative="1" as="geometry" />
        </mxCell>
      </root>
    </mxGraphModel>
  </diagram>
</mxfile>
